<!DOCTYPE svg PUBLIC "-//W3C//DTD SVG 1.1//EN" "http://www.w3.org/Graphics/SVG/1.1/DTD/svg11.dtd">
<svg xmlns="http://www.w3.org/2000/svg" data-noselect="" viewBox="0 0 512 512" width="48" ref="svg_canvas" height="48" preserveAspectRatio="none" version="1.1">
    
    <g id="shape_JZfIU9uh3q" ref="shape_JZfIU9uh3q" key="shape_JZfIU9uh3q" style="cursor:move;display:inline;opacity:1;" filter="">
            <g style="display:inline"><svg xmlns="http://www.w3.org/2000/svg" xmlns:xlink="http://www.w3.org/1999/xlink" version="1.1" id="图层_1" x="0px" y="0px" style="enable-background:new 0 0 283.46 226.77;" xml:space="preserve" viewBox="99.6082534790039 70.13099670410156 82.88294219970703 85.80601501464844" width="512" height="512" preserveAspectRatio="none" data-parent="shape_JZfIU9uh3q">
<g>
	<linearGradient id="SVGID_1_" gradientUnits="userSpaceOnUse" x1="175.9955" y1="146.8367" x2="155.9626" y2="122.9881">
		<stop offset="0" style="" stop-color="#28569E"/>
		<stop offset="1" style="" stop-color="#34B5B5"/>
	</linearGradient>
	<path style="" d="M179.639,140.229c4.355,7.386,2.427,15.708,2.427,15.708s-3.175-9.527-16.936-9.353   c-13.763,0.178-15.704-8.469-15.704-8.469c3.706,4.764,8.998,5.47,16.409,5.119c7.411-0.355,11.469,2.645,11.469,2.645   c0.705-7.235-7.058-13.762-7.058-13.762c2.655,1.193,4.746,2.663,6.396,4.282c0.288-11.517-9.924-16.766-9.924-16.766   c2.58,0.941,4.655,2.181,6.32,3.589c-1.408-7.429-9.584-9.19-9.584-9.19c9.666,0.966,11.138,8.21,11.349,10.904   C180.066,130.805,179.789,138.415,179.639,140.229z" fill="url(#SVGID_1_)"/>
	<linearGradient id="SVGID_2_" gradientUnits="userSpaceOnUse" x1="99.8012" y1="124.1222" x2="122.6951" y2="150.1965">
		<stop offset="0" style="" stop-color="#F2C222"/>
		<stop offset="0.153" style="" stop-color="#F1BD24"/>
		<stop offset="0.3922" style="" stop-color="#EEAD27"/>
		<stop offset="0.6873" style="" stop-color="#EA912A"/>
		<stop offset="1" style="" stop-color="#E66A2B"/>
	</linearGradient>
	<path style="" d="M102.461,140.229c-4.355,7.386-2.428,15.708-2.428,15.708s3.175-9.527,16.937-9.353   c13.763,0.178,15.704-8.469,15.704-8.469c-3.706,4.764-8.998,5.47-16.409,5.119c-7.411-0.355-11.469,2.645-11.469,2.645   c-0.706-7.235,7.058-13.762,7.058-13.762c-2.655,1.193-4.746,2.663-6.395,4.282c-0.288-11.517,9.924-16.766,9.924-16.766   c-2.58,0.941-4.655,2.181-6.32,3.589c1.408-7.429,9.584-9.19,9.584-9.19c-9.666,0.966-11.138,8.21-11.349,10.904   C102.032,130.805,102.31,138.415,102.461,140.229z" fill="url(#SVGID_2_)"/>
	<linearGradient id="SVGID_3_" gradientUnits="userSpaceOnUse" x1="103.1744" y1="75.2586" x2="123.5255" y2="100.0619">
		<stop offset="0" style="" stop-color="#B7CD40"/>
		<stop offset="0.2785" style="" stop-color="#B1C840"/>
		<stop offset="0.6726" style="" stop-color="#A2B83F"/>
		<stop offset="1" style="" stop-color="#92A73E"/>
	</linearGradient>
	<path style="" d="M102.461,85.839c-4.355-7.386-2.428-15.708-2.428-15.708s3.175,9.527,16.937,9.353   c13.763-0.178,15.704,8.469,15.704,8.469c-3.706-4.764-8.998-5.47-16.409-5.119c-7.411,0.355-11.469-2.645-11.469-2.645   c-0.706,7.234,7.058,13.762,7.058,13.762c-2.655-1.193-4.746-2.663-6.395-4.282c-0.288,11.517,9.924,16.766,9.924,16.766   c-2.58-0.941-4.655-2.181-6.32-3.589c1.408,7.429,9.584,9.19,9.584,9.19c-9.666-0.966-11.138-8.21-11.349-10.904   C102.032,95.264,102.31,87.653,102.461,85.839z" fill="url(#SVGID_3_)"/>
	
		<linearGradient id="SVGID_4_" gradientUnits="userSpaceOnUse" x1="509.6172" y1="118.0749" x2="491.5135" y2="96.1917" gradientTransform="matrix(-1 0 0 1 668.4297 -18.334)">
		<stop offset="0" style="" stop-color="#DC2E80"/>
		<stop offset="1" style="" stop-color="#68398D"/>
	</linearGradient>
	<path style="" d="M179.639,85.839c4.355-7.386,2.427-15.708,2.427-15.708s-3.175,9.527-16.936,9.353   c-13.763-0.178-15.704,8.469-15.704,8.469c3.706-4.764,8.998-5.47,16.409-5.119c7.411,0.355,11.469-2.645,11.469-2.645   c0.705,7.234-7.058,13.762-7.058,13.762c2.655-1.193,4.746-2.663,6.396-4.282c0.288,11.517-9.924,16.766-9.924,16.766   c2.58-0.941,4.655-2.181,6.32-3.589c-1.408,7.429-9.584,9.19-9.584,9.19c9.666-0.966,11.138-8.21,11.349-10.904   C180.066,95.264,179.789,87.653,179.639,85.839z" fill="url(#SVGID_4_)"/>
	<linearGradient id="SVGID_5_" gradientUnits="userSpaceOnUse" x1="141.0493" y1="85.6564" x2="141.0493" y2="138.7935">
		<stop offset="0" style="" stop-color="#F2C222"/>
		<stop offset="0.153" style="" stop-color="#F1BD24"/>
		<stop offset="0.3922" style="" stop-color="#EEAD27"/>
		<stop offset="0.6873" style="" stop-color="#EA912A"/>
		<stop offset="1" style="" stop-color="#E66A2B"/>
	</linearGradient>
	<path style="" d="M118.567,97.224c0,0-4.683,0.602-8.093-1.271c0,0,1.539,7.422,8.427,11.903   c0,0-3.076,0.468-5.148-0.535c0,0,2.309,2.938,5.354,4.384c0,0,0.829,0.591,2.5,1.329c-1.671,0.738-2.5,1.329-2.5,1.329   c-3.045,1.445-5.354,4.384-5.354,4.384c2.072-1.003,5.148-0.535,5.148-0.535c-6.888,4.481-8.427,11.903-8.427,11.903   c3.41-1.872,8.093-1.271,8.093-1.271c-7.424,5.083-9.563,13.041-9.563,13.041c1.538-1.071,4.146-1.404,12.572-1.138   c6.413,0.204,9.425-1.287,11.379-3.389c3.063-4.112,5.847-7.161,8.094-9.301c2.248,2.14,5.032,5.189,8.095,9.301   c1.954,2.101,4.966,3.593,11.379,3.389c8.426-0.267,11.034,0.066,12.572,1.138c0,0-2.14-7.958-9.563-13.041   c0,0,4.683-0.602,8.093,1.271c0,0-1.539-7.422-8.428-11.903c0,0,3.077-0.468,5.149,0.535c0,0-2.309-2.938-5.354-4.384   c0,0-0.829-0.591-2.5-1.329c1.671-0.738,2.5-1.329,2.5-1.329c3.045-1.445,5.354-4.384,5.354-4.384   c-2.072,1.003-5.149,0.535-5.149,0.535c6.889-4.481,8.428-11.903,8.428-11.903c-3.41,1.872-8.093,1.271-8.093,1.271   c7.424-5.083,9.563-13.041,9.563-13.041c-1.538,1.071-4.146,1.404-12.572,1.138c-6.413-0.204-9.425,1.287-11.379,3.389   c-3.063,4.112-5.847,7.161-8.095,9.301c-2.247-2.14-5.031-5.188-8.094-9.301c-1.954-2.102-4.966-3.593-11.379-3.389   c-8.426,0.267-11.034-0.066-12.572-1.138C109.004,84.183,111.144,92.141,118.567,97.224z" fill="url(#SVGID_5_)"/>
	<g style="" opacity="0.3">
		<path style="" d="M109.047,141.699c-0.015,0.01-0.03,0.019-0.044,0.028c0,0,0.009-0.032,0.023-0.086L109.047,141.699    z" fill="#FFFFFF"/>
		<path style="" d="M140.367,113.702c-8.459,15.484-30.166,27.097-31.306,27.83c0.364-1.197,2.732-8.208,9.505-12.847    c0,0-4.683-0.601-8.093,1.271c0,0,1.539-7.423,8.428-11.903c0,0-3.077-0.468-5.149,0.535c0,0,2.308-2.938,5.353-4.384    c0,0,0.829-0.592,2.5-1.329c-1.671-0.738-2.5-1.329-2.5-1.329c-3.045-1.445-5.353-4.384-5.353-4.384    c2.072,1.003,5.149,0.535,5.149,0.535c-6.889-4.481-8.428-11.903-8.428-11.903c3.41,1.871,8.093,1.271,8.093,1.271    c-7.424-5.084-9.563-13.041-9.563-13.041c1.538,1.071,4.146,1.404,12.572,1.137c6.413-0.203,9.425,1.288,11.379,3.39    c3.063,4.112,5.847,7.161,8.095,9.3c2.247-2.139,5.031-5.188,8.094-9.3c1.954-2.102,4.966-3.593,11.379-3.39    c8.426,0.268,11.034-0.065,12.572-1.137c0,0-0.021,0.071-0.051,0.173C164.755,88.864,149.747,96.531,140.367,113.702z" fill="#FFFFFF"/>
	</g>
</g>
</svg></g>
        </g>
  </svg>
